# AST/ASF file generated using VICON BodyLanguage
# -----------------------------------------------
:version 1.10
:name VICON
:units
  mass 1.0
  length 0.45
  angle deg
:documentation
   .ast/.asf automatically generated from VICON data using
   VICON BodyBuilder and BodyLanguage model FoxedUp or BRILLIANT.MOD
:root
   order TX TY TZ RX RY RZ
   axis XYZ
   position 0 0 0  
   orientation 0 0 0 
:bonedata
  begin
     id 1 
     name lhipjoint
     direction 0.561001 -0.76473 0.316963 
     length 2.4722 
     axis 0 0 0  XYZ
  end
  begin
     id 2 
     name lfemur
     direction 0.34202 -0.939693 0  
     length 7.59403  
     axis 0 0 20  XYZ
    dof rx ry rz
    limits (-160.0 20.0)
           (-70.0 70.0)
           (-60.0 70.0)
  end
  begin
     id 3 
     name ltibia
     direction 0.34202 -0.939693 0   
     length 7.89655   
     axis 0 0 20   XYZ
    dof rx
    limits (-10.0 170.0)
  end
  begin
     id 4 
     name lfoot
     direction 0.061296 -0.168409 0.98381   
     length 2.73287   
     axis -90 7.62852e-016 20   XYZ
    dof rx rz
    limits (-45.0 90.0)
           (-70.0 20.0)
  end
  begin
     id 5 
     name ltoes
     direction 1.53547e-011 -4.21984e-011 1   
     length 1.37057   
     axis -90 7.62852e-016 20   XYZ
    dof rx
    limits (-90.0 20.0)
  end
  begin
     id 6 
     name rhipjoint
     direction -0.559611 -0.765599 0.317323   
     length 2.46939  
     axis 0 0 0  XYZ 
  end
  begin
     id 7 
     name rfemur
     direction -0.34202 -0.939693 0   
     length 7.53712   
     axis 0 0 -20   XYZ
    dof rx ry rz
    limits (-160.0 20.0)
           (-70.0 70.0)
           (-70.0 60.0)
  end
  begin
     id 8 
     name rtibia
     direction -0.34202 -0.939693 0   
     length 8.12549   
     axis 0 0 -20   XYZ
    dof rx
    limits (-10.0 170.0)
 end
 begin
     id 9 
     name rfoot
     direction -0.066984 -0.184037 0.980634   
     length 2.67541  
     axis -90 -7.62852e-016 -20   XYZ
    dof rx rz
    limits (-45.0 90.0)
           (-20.0 70.0)
  end
  begin
     id 10 
     name rtoes
     direction -1.53549e-011 -4.21786e-011 1   
     length 1.34085   
     axis -90 -7.62852e-016 -20   XYZ
    dof rx
    limits (-90.0 20.0)
  end
  begin
     id 11 
     name lowerback
     direction -0.0522728 0.992594 -0.109658   
     length 2.05633   
     axis 0 0 0   XYZ
    dof rx ry rz
    limits (-20.0 45.0)
           (-30.0 30.0)
           (-30.0 30.0)
  end
  begin
     id 12 
     name upperback
     direction 0.00589338 0.999977 0.00335704   
     length 2.05845   
     axis 0 0 0   XYZ
    dof rx ry rz
    limits (-20.0 45.0)
           (-30.0 30.0)
           (-30.0 30.0)
  end
  begin
     id 13 
     name thorax
     direction 0.0292928 0.998059 0.0549487   
     length 2.09281   
     axis 0 0 0   XYZ
    dof rx ry rz
    limits (-20.0 45.0)
           (-30.0 30.0)
           (-30.0 30.0)
  end
  begin
     id 14 
     name lowerneck
     direction 0.0356368 0.980775 0.191858   
     length 1.84767   
     axis 0 0 0   XYZ
    dof rx ry rz
    limits (-20.0 45.0)
           (-30.0 30.0)
           (-30.0 30.0)
  end
  begin
     id 15 
     name upperneck
     direction -0.0227605 0.98931 -0.14404   
     length 1.89582   
     axis 0 0 0   XYZ
    dof rx ry rz
    limits (-20.0 45.0)
           (-30.0 30.0)
           (-30.0 30.0)
  end
  begin
     id 16
     name head
     direction -0.00932985 0.997511 -0.0698904  
     length 1.90213  
     axis 0 0 0   XYZ
    dof rx ry rz
    limits (-20.0 45.0)
           (-30.0 30.0)
           (-30.0 30.0)
  end
  begin
     id 17 
     name lclavicle
     direction 0.873442 0.479511 0.0846686  
     length 3.41193  
     axis 0 0 0   XYZ
    dof ry rz
    limits (-20.0 10.0)
           (0.0 20.0)
  end
  begin
     id 18 
     name lhumerus
     direction 1 -4.4897e-011 -5.62117e-018   
     length 5.59864   
     axis 180 -30 -90   XYZ
    dof rx ry rz
    limits (-60.0 90.0)
           (-90.0 90.0)
           (-90.0 90.0)
  end
  begin
     id 19
     name lradius
     direction 1 -4.48966e-011 -6.26295e-027   
     length 3.59542   
     axis 180 -30 -90   XYZ
    dof rx
    limits (-10.0 170.0)
  end
  begin
     id 20
     name lwrist
     direction 1 -4.48947e-011 -1.74096e-026   
     length 1.79771   
     axis 1.04567e-014 90 90   XYZ
    dof ry
    limits (-180.0 0.0)
 end
  begin
     id 21 
     name lhand
     direction 1 -4.49085e-011 -3.48469e-026   
     length 0.572014   
     axis 2.22196e-014 90 90   XYZ
    dof rx rz
    limits (-90.0 90.0)
           (-45.0 45.0)
  end
  begin
     id 22 
     name lfingers
     direction 1 -4.48884e-011 -6.96135e-026   
     length 0.461173   
     axis 4.44383e-014 90 90   XYZ
    dof rx
    limits (0.0 90.0)
  end
  begin
     id 23
     name lthumb
     direction 0.707107 -6.34976e-011 0.707107   
     length 0.662154   
     axis -90 45 -5.4397e-014   XYZ
    dof rx rz
    limits (-45.0 45.0)
           (-45.0 45.0)
  end
  begin
     id 24 
     name rclavicle
     direction -0.890242 0.443271 0.104786   
     length 3.46753  
     axis 0 0 0   XYZ 
    dof ry rz
    limits (-10.0 20.0)
           (-20.0 0.0)
  end
  begin
     id 25 
     name rhumerus
     direction -1 -4.48963e-011 -5.41723e-018  
     length 5.8094   
     axis 180 30 90   XYZ
    dof rx ry rz
    limits (-90.0 60.0)
           (-90.0 90.0)
           (-90.0 90.0)
  end
  begin
     id 26 
     name rradius
     direction -1 -4.48958e-011 -6.51059e-027   
     length 3.66953   
     axis 180 30 90   XYZ
    dof rx
    limits (-10.0 170.0)
  end
  begin
     id 27 
     name rwrist
     direction -1 -4.48975e-011 -1.74124e-026   
     length 1.83476   
     axis 1.04567e-014 -90 -90   XYZ
    dof ry
    limits (-180.0 0.0)
  end
  begin
     id 28
     name rhand
     direction -1 -4.49013e-011 -3.48326e-026   
     length 0.57843   
     axis 2.22196e-014 -90 -90   XYZ
    dof rx rz
    limits (-90.0 90.0)
           (-45.0 45.0)
  end
  begin
     id 29
     name rfingers
     direction -1 -4.49023e-011 -6.9669e-026   
     length 0.466345   
     axis 4.44383e-014 -90 -90   XYZ
    dof rx
    limits (0.0 90.0)
  end
  begin
     id 30
     name rthumb
     direction -0.707107 -6.34926e-011 0.707107   
     length 0.669581   
     axis -90 -45 5.4397e-014   XYZ
    dof rx rz
    limits (-45.0 45.0)
           (-45.0 45.0)
  end
:hierarchy
  begin
    root lhipjoint rhipjoint lowerback
    lhipjoint lfemur
    lfemur ltibia
    ltibia lfoot
    lfoot ltoes
    rhipjoint rfemur
    rfemur rtibia
    rtibia rfoot
    rfoot rtoes
    lowerback upperback
    upperback thorax
    thorax lowerneck lclavicle rclavicle
    lowerneck upperneck
    upperneck head
    lclavicle lhumerus
    lhumerus lradius
    lradius lwrist
    lwrist lhand lthumb
    lhand lfingers
    rclavicle rhumerus
    rhumerus rradius
    rradius rwrist
    rwrist rhand rthumb
    rhand rfingers
  end

#!OML:ASF H:\SkateBoarding\Project 1\Capture day 1\Session 1\Skater.ASF
:FULLY-SPECIFIED
:DEGREES
1
root 7.14219 18.3647 -32.051 4.99014 31.2178 3.38346
lowerback 1.23259 1.99451 -2.22492
upperback -2.01699 2.6762 2.39228
thorax -2.98428 1.41946 3.60755
lowerneck -10.1552 15.6809 14.3959
upperneck 24.7524 21.2958 -6.11233
head 12.0261 10.4512 -1.27381
rclavicle -7.2047e-014 2.38542e-015
rhumerus -45.5259 -31.3719 -60.4296
rradius 23.0079
rwrist 6.09465
rhand -43.6037 -8.96694
rfingers 7.12502
rthumb -16.4397 -38.2904
lclavicle -7.2047e-014 2.38542e-015
lhumerus -37.0778 -9.30341 98.4541
lradius 27.1783
lwrist 10.0521
lhand -15.0424 21.7755
lfingers 7.12502
lthumb 11.1238 51.4606
rfemur -7.38744 6.32287 20.8047
rtibia 32.2397
rfoot -44.7202 -7.25559
rtoes -22.6987
lfemur -17.7757 -27.3211 -22.7471
ltibia 34.1293
lfoot -33.6232 6.44625
ltoes -12.7654
2
root 7.14003 18.3644 -32.0512 4.96586 31.1697 3.35293
lowerback 1.22799 2.01707 -2.09004
upperback -2.02976 2.7057 2.25292
thorax -2.98337 1.42914 3.38587
lowerneck -10.1044 15.6618 14.6074
upperneck 24.7376 21.2567 -6.19622
head 12.0445 10.4431 -1.34011
rclavicle 5.28891e-014 1.43125e-014
rhumerus -45.7422 -31.5511 -60.2857
rradius 23.1201
rwrist 5.57535
rhand -43.6534 -9.0312
rfingers 7.12502
rthumb -16.4875 -38.3506
lclavicle 5.28891e-014 1.43125e-014
lhumerus -37.2357 -9.61101 98.3952
lradius 27.2141
lwrist 10.4891
lhand -15.4539 21.6153
lfingers 7.12502
lthumb 10.7269 51.3215
rfemur -7.37671 6.37327 20.8366
rtibia 32.2224
rfoot -44.7087 -7.20923
rtoes -22.5873
lfemur -17.7735 -27.2675 -22.718
ltibia 34.1367
lfoot -33.6161 6.44715
ltoes -12.834
3
root 7.13964 18.3658 -32.0537 4.98208 31.1435 3.33558
lowerback 1.19824 1.98769 -1.97648
upperback -2.0279 2.66695 2.166
thorax -2.95175 1.40544 3.23488
lowerneck -10.0236 15.6807 14.7534
upperneck 24.6805 21.3021 -6.33556
head 12.049 10.4632 -1.40472
rclavicle -4.08006e-014 -1.74931e-014
rhumerus -45.82 -31.4837 -60.2711
rradius 23.3685
rwrist 4.86428
rhand -43.4316 -9.4759
rfingers 7.12502
rthumb -16.274 -38.8129
lclavicle -4.08006e-014 -1.74931e-014
lhumerus -37.3302 -9.70166 98.3324
lradius 27.2591
lwrist 10.8821
lhand -15.6901 21.0761
lfingers 7.12502
lthumb 10.4991 50.7939
rfemur -7.4206 6.35075 20.8346
rtibia 32.2074
rfoot -44.6398 -7.21349
rtoes -22.63
lfemur -17.8243 -27.2375 -22.6852
ltibia 34.141
lfoot -33.6138 6.42398
ltoes -12.7739
4
root 7.13732 18.3652 -32.0533 4.9896 31.1161 3.35117
lowerback 1.18655 2.00997 -1.92802
upperback -2.03885 2.69447 2.04415
thorax -2.94984 1.41637 3.0807
lowerneck -10.0579 15.6443 14.9137
upperneck 24.7184 21.2324 -6.38747
head 12.0898 10.4369 -1.4515
rclavicle -4.76089e-014 1.03368e-014
rhumerus -46.0781 -31.8032 -59.9559
rradius 23.4536
rwrist 4.53653
rhand -43.3636 -9.60365
rfingers 7.12502
rthumb -16.2085 -38.946
lclavicle -4.76089e-014 1.03368e-014
lhumerus -37.4538 -9.90663 98.2743
lradius 27.267
lwrist 11.1518
lhand -15.9192 20.7659
lfingers 7.12502
lthumb 10.2781 50.4948
rfemur -7.41427 6.35843 20.8215
rtibia 32.1882
rfoot -44.6527 -7.16441
rtoes -22.6034
lfemur -17.8262 -27.2096 -22.6951
ltibia 34.1506
lfoot -33.6196 6.39155
ltoes -12.7137
5
root 7.1331 18.3661 -32.0518 4.94719 31.0833 3.28138
lowerback 0.952574 1.99998 -1.98701
upperback -1.88095 2.68124 2.07966
thorax -2.65871 1.40577 3.16265
lowerneck -10.0589 15.659 14.9761
upperneck 24.5538 21.2998 -6.65858
head 12.0769 10.443 -1.5437
rclavicle 1.80894e-014 -1.66979e-014
rhumerus -45.931 -31.8987 -59.8412
rradius 23.6288
rwrist 3.80743
rhand -43.0712 -9.54951
rfingers 7.12502
rthumb -15.9269 -38.9146
lclavicle 1.80894e-014 -1.66979e-014
lhumerus -37.2782 -9.90521 98.2987
lradius 27.276
lwrist 11.5439
lhand -16.2523 20.3574
lfingers 7.12502
lthumb 9.95676 50.1019
rfemur -7.39675 6.48059 20.9194
rtibia 32.1646
rfoot -44.5986 -7.21018
rtoes -22.7414
lfemur -17.8228 -27.1605 -22.6137
ltibia 34.1623
lfoot -33.6149 6.3837
ltoes -12.7146
6
root 7.1301 18.3664 -32.0512 4.93268 31.0517 3.25165
lowerback 0.851177 1.99867 -1.96719
upperback -1.82134 2.67888 2.02872
thorax -2.53641 1.40113 3.10387
lowerneck -10.0485 15.6573 15.0951
upperneck 24.4822 21.3149 -6.82368
head 12.0858 10.4418 -1.61471
rclavicle 1.56046e-014 1.82882e-014
rhumerus -45.9797 -32.0174 -59.7025
rradius 23.7638
rwrist 3.25995
rhand -42.9165 -9.6559
rfingers 7.12502
rthumb -15.778 -39.0328
lclavicle 1.56046e-014 1.82882e-014
lhumerus -37.2735 -9.99656 98.2691
lradius 27.2982
lwrist 11.9133
lhand -16.5299 19.9679
lfingers 7.12502
lthumb 9.68892 49.7251
rfemur -7.39246 6.52753 20.9586
rtibia 32.1408
rfoot -44.562 -7.21228
rtoes -22.7954
lfemur -17.8332 -27.1206 -22.5734
ltibia 34.1764
lfoot -33.6148 6.36331
ltoes -12.6977
7
root 7.1268 18.3668 -32.0503 4.91796 31.0204 3.22128
lowerback 0.755584 1.99711 -1.9507
upperback -1.76379 2.67618 1.97847
thorax -2.41976 1.39656 3.04749
lowerneck -10.0377 15.6561 15.2115
upperneck 24.4086 21.3318 -6.99095
head 12.0939 10.441 -1.68594
rclavicle -5.92627e-015 7.95139e-015
rhumerus -46.0301 -32.1242 -59.5762
rradius 23.8876
rwrist 2.74121
rhand -42.7683 -9.73539
rfingers 7.12502
rthumb -15.6352 -39.1236
lclavicle -5.92627e-015 7.95139e-015
lhumerus -37.2657 -10.0755 98.2375
lradius 27.3207
lwrist 12.3
lhand -16.8119 19.5409
lfingers 7.12502
lthumb 9.41687 49.3106
rfemur -7.38559 6.57203 21.0001
rtibia 32.1128
rfoot -44.5251 -7.22061
rtoes -22.8517
lfemur -17.8439 -27.0807 -22.531
ltibia 34.1918
lfoot -33.616 6.34046
ltoes -12.6775
8
root 7.12313 18.3671 -32.049 4.90091 30.9899 3.18818
lowerback 0.676588 1.99769 -1.92775
upperback -1.71553 2.6763 1.92188
thorax -2.32165 1.39361 2.98013
lowerneck -10.0259 15.6529 15.3318
upperneck 24.3406 21.344 -7.15166
head 12.1033 10.4392 -1.75628
rclavicle -5.82688e-014 -1.43125e-014
rhumerus -46.0995 -32.232 -59.4556
rradius 23.9893
rwrist 2.27222
rhand -42.6443 -9.79046
rfingers 7.12502
rthumb -15.5158 -39.1879
lclavicle -5.82688e-014 -1.43125e-014
lhumerus -37.2663 -10.149 98.1945
lradius 27.3444
lwrist 12.6818
lhand -17.0829 19.1123
lfingers 7.12502
lthumb 9.15538 48.8935
rfemur -7.37904 6.62047 21.0474
rtibia 32.0903
rfoot -44.5008 -7.2309
rtoes -22.8881
lfemur -17.8508 -27.0408 -22.4848
ltibia 34.2019
lfoot -33.6144 6.32267
ltoes -12.6668
9
root 7.11923 18.3676 -32.0476 4.88314 30.9608 3.15281
lowerback 0.617312 2.00018 -1.89391
upperback -1.67937 2.67891 1.85697
thorax -2.24635 1.39212 2.89708
lowerneck -10.0098 15.6478 15.459
upperneck 24.2803 21.3517 -7.30406
head 12.114 10.437 -1.82569
rclavicle 4.29685e-014 1.51076e-014
rhumerus -46.1927 -32.3354 -59.344
rradius 24.0744
rwrist 1.84552
rhand -42.5362 -9.82257
rfingers 7.12502
rthumb -15.4117 -39.2281
lclavicle 4.29685e-014 1.51076e-014
lhumerus -37.2774 -10.2187 98.1391
lradius 27.3687
lwrist 13.0492
lhand -17.3338 18.6956
lfingers 7.12502
lthumb 8.91321 48.4874
rfemur -7.3727 6.66957 21.0987
rtibia 32.0682
rfoot -44.4842 -7.24816
rtoes -22.9048
lfemur -17.8574 -27.0019 -22.4349
ltibia 34.2105
lfoot -33.6122 6.30356
ltoes -12.655
10
root 7.11522 18.368 -32.0461 4.86898 30.9347 3.12102
lowerback 0.576355 2.00399 -1.85221
upperback -1.65492 2.68315 1.78258
thorax -2.1927 1.39167 2.79896
lowerneck -9.99543 15.6407 15.5896
upperneck 24.2316 21.354 -7.44628
head 12.1282 10.4336 -1.8927
rclavicle 5.63617e-014 1.66979e-014
rhumerus -46.3114 -32.4431 -59.235
rradius 24.1454
rwrist 1.47335
rhand -42.443 -9.84469
rfingers 7.12502
rthumb -15.3219 -39.2571
lclavicle 5.63617e-014 1.66979e-014
lhumerus -37.2958 -10.2801 98.0689
lradius 27.3907
lwrist 13.38
lhand -17.5523 18.3087
lfingers 7.12502
lthumb 8.70237 48.1093
rfemur -7.36902 6.70841 21.1458
rtibia 32.0464
rfoot -44.4715 -7.2629
rtoes -22.9016
lfemur -17.8661 -26.9665 -22.3868
ltibia 34.2175
lfoot -33.609 6.28692
ltoes -12.6451
11
root 7.11094 18.3685 -32.0446 4.85672 30.9116 3.09143
lowerback 0.566134 2.0111 -1.79601
upperback -1.65078 2.69158 1.69249
thorax -2.176 1.3936 2.67492
lowerneck -9.9813 15.6286 15.7301
upperneck 24.2042 21.3441 -7.56765
head 12.1477 10.4277 -1.95569
rclavicle 5.2796e-014 -3.18055e-015
rhumerus -46.478 -32.5625 -59.1215
rradius 24.2042
rwrist 1.16078
rhand -42.3742 -9.84387
rfingers 7.12502
rthumb -15.2556 -39.2613
lclavicle 5.2796e-014 -3.18055e-015
lhumerus -37.3335 -10.3395 97.9775
lradius 27.4085
lwrist 13.655
lhand -17.7304 17.9776
lfingers 7.12502
lthumb 8.53056 47.7853
rfemur -7.36543 6.75454 21.1941
rtibia 32.0255
rfoot -44.4764 -7.28078
rtoes -22.8737
lfemur -17.8746 -26.934 -22.3394
ltibia 34.2229
lfoot -33.6056 6.27377
ltoes -12.6448
12
root 7.10664 18.3691 -32.0431 4.84743 30.8928 3.06463
lowerback 0.555413 2.01964 -1.74187
upperback -1.64615 2.70187 1.60158
thorax -2.15866 1.39652 2.55125
lowerneck -9.96967 15.6143 15.87
upperneck 24.1807 21.331 -7.68878
head 12.1687 10.4203 -2.01899
rclavicle -8.48127e-014 -1.90833e-014
rhumerus -46.6521 -32.7038 -58.9974
rradius 24.2532
rwrist 0.888409
rhand -42.3068 -9.81623
rfingers 7.12502
rthumb -15.1907 -39.2386
lclavicle -8.48127e-014 -1.90833e-014
lhumerus -37.3553 -10.382 97.8766
lradius 27.4178
lwrist 13.8644
lhand -17.8659 17.7117
lfingers 7.12502
lthumb 8.39976 47.5246
rfemur -7.3647 6.78758 21.2382
rtibia 32.0062
rfoot -44.4763 -7.29716
rtoes -22.8398
lfemur -17.8846 -26.9063 -22.2934
ltibia 34.2267
lfoot -33.601 6.26332
ltoes -12.6414
13
root 7.10229 18.3697 -32.0416 4.84315 30.8787 3.04362
lowerback 0.544827 2.02796 -1.69331
upperback -1.64219 2.71182 1.50991
thorax -2.14225 1.3994 2.42998
lowerneck -9.96332 15.5985 16.0066
upperneck 24.1655 21.3162 -7.80684
head 12.1929 10.4118 -2.08069
rclavicle 1.34552e-014 5.56597e-015
rhumerus -46.8341 -32.8603 -58.8669
rradius 24.2975
rwrist 0.653046
rhand -42.2405 -9.78387
rfingers 7.12502
rthumb -15.1268 -39.2111
lclavicle 1.34552e-014 5.56597e-015
lhumerus -37.3625 -10.4035 97.7658
lradius 27.4192
lwrist 14.0051
lhand -17.9605 17.5182
lfingers 7.12502
lthumb 8.30843 47.3348
rfemur -7.36728 6.81228 21.2762
rtibia 31.9889
rfoot -44.4725 -7.30619
rtoes -22.8055
lfemur -17.8966 -26.884 -22.2517
ltibia 34.2292
lfoot -33.5969 6.25476
ltoes -12.6387
14
root 7.0979 18.3701 -32.0401 4.84165 30.8686 3.02534
lowerback 0.532554 2.03557 -1.64966
upperback -1.63793 2.72081 1.4201
thorax -2.12484 1.40193 2.31356
lowerneck -9.95967 15.5809 16.1391
upperneck 24.1577 21.2993 -7.92264
head 12.2194 10.4023 -2.14126
rclavicle 4.51303e-015 -3.97569e-015
rhumerus -47.0176 -33.0243 -58.7356
rradius 24.3366
rwrist 0.446563
rhand -42.185 -9.73291
rfingers 7.12502
rthumb -15.0733 -39.1641
lclavicle 4.51303e-015 -3.97569e-015
lhumerus -37.3549 -10.4021 97.6473
lradius 27.4113
lwrist 14.0805
lhand -18.0126 17.3826
lfingers 7.12502
lthumb 8.25816 47.2012
rfemur -7.37249 6.82501 21.3102
rtibia 31.9736
rfoot -44.4626 -7.30953
rtoes -22.7917
lfemur -17.9102 -26.8665 -22.2116
ltibia 34.231
lfoot -33.5936 6.24531
ltoes -12.6408
